<?xml version="1.0" encoding="UTF-8" standalone="no"?>
<!DOCTYPE svg PUBLIC "-//W3C//DTD SVG 1.1//EN" "http://www.w3.org/Graphics/SVG/1.1/DTD/svg11.dtd">
<svg width="100%" height="100%" viewBox="0 0 108 24" version="1.1" xmlns="http://www.w3.org/2000/svg" xmlns:xlink="http://www.w3.org/1999/xlink" xml:space="preserve" xmlns:serif="http://www.serif.com/" style="fill-rule:evenodd;clip-rule:evenodd;stroke-linejoin:round;stroke-miterlimit:2;">
    <g transform="matrix(0.171467,0,0,0.171467,-229.314,-423.228)">
        <path d="M1270.17,2075.29L1270.17,2075.38C1270.17,2080.72 1274.45,2084.99 1279.78,2085.18C1378.95,2088.78 1473.99,2143.43 1523.8,2236.55C1597.62,2374.54 1546.98,2547.3 1409.64,2623.38C1390.27,2634.11 1370.19,2642.33 1349.77,2648.19C1344.9,2649.59 1341.35,2654.1 1341.78,2659.15C1342.37,2665.93 1348.89,2670.15 1355.14,2668.36C1377.17,2662.05 1398.83,2653.18 1419.73,2641.6C1568.25,2559.34 1622.18,2372.52 1540.6,2223.82C1487.75,2127.51 1385.77,2070.12 1280.5,2065.49C1280.35,2065.49 1280.2,2065.48 1280.05,2065.48C1274.63,2065.48 1270.17,2069.82 1270.17,2075.29ZM1453.98,2194.11C1450,2197.97 1449.72,2204.29 1453.41,2208.43C1523.06,2286.58 1537.44,2404.05 1480.85,2498.45C1424.25,2592.85 1313.86,2635.52 1212.11,2610.89C1206.73,2609.59 1201.28,2612.82 1199.75,2618.15C1198.11,2623.88 1201.61,2629.79 1207.4,2631.18C1317.72,2657.79 1437.35,2611.5 1498.71,2509.16C1560.07,2406.83 1544.53,2279.48 1469.08,2194.72C1467,2192.38 1464.11,2191.18 1461.22,2191.18C1458.61,2191.18 1456.01,2192.15 1453.98,2194.11ZM1076.53,2257.6C1068.54,2271.13 1061.84,2285.68 1056.69,2301.18C1017.64,2418.91 1081.64,2546.46 1199.37,2585.51C1317.09,2624.57 1444.64,2560.57 1483.7,2442.85C1488.84,2427.34 1492.17,2411.67 1493.83,2396.05C1494.47,2390.13 1490,2384.89 1484.06,2384.55C1478.53,2384.22 1473.71,2388.27 1473.13,2393.77C1471.62,2407.95 1468.59,2422.2 1463.92,2436.28C1428.48,2543.1 1312.75,2601.18 1205.92,2565.74C1099.1,2530.3 1041.03,2414.56 1076.47,2307.74C1081.14,2293.66 1087.23,2280.43 1094.5,2268.15C1097.32,2263.39 1095.87,2257.27 1091.25,2254.22C1089.48,2253.06 1087.48,2252.5 1085.51,2252.5C1081.96,2252.5 1078.48,2254.31 1076.53,2257.6ZM1222.8,2195.04C1176.04,2207.55 1133.99,2238.48 1108.7,2285.38C1066.53,2363.58 1087.53,2462.35 1157.8,2516.72C1242.97,2582.62 1364.93,2561.19 1423.18,2472.97C1448.85,2434.1 1457.73,2388.95 1451.6,2346.11C1450.75,2340.19 1445.04,2336.22 1439.19,2337.42L1439.18,2337.43C1433.78,2338.53 1430.21,2343.65 1430.99,2349.1C1436.79,2389.65 1427.4,2432.54 1400.92,2468.49C1352.68,2533.97 1261.7,2553.58 1190.82,2513.69C1107.92,2467.03 1083.18,2360.47 1134.69,2282.46C1157.43,2248.03 1191.12,2225.08 1228.15,2215.16C1233.48,2213.73 1236.8,2208.45 1235.69,2203.04C1234.67,2198.08 1230.3,2194.68 1225.48,2194.68C1224.6,2194.68 1223.7,2194.8 1222.8,2195.04ZM1254.16,2231.47C1186.98,2239 1133.94,2294.54 1129.2,2361.97C1123.38,2444.64 1188.99,2513.76 1270.45,2513.76C1318.74,2513.76 1361.38,2489.41 1386.93,2452.39C1390.35,2447.43 1388.69,2440.58 1383.47,2437.58C1378.75,2434.85 1372.78,2436.28 1369.67,2440.76C1347.35,2472.99 1309.82,2493.91 1267.5,2492.9C1205.57,2491.42 1153.98,2442.05 1149.94,2380.23C1145.34,2310 1201.18,2251.38 1270.45,2251.38C1311.54,2251.38 1347.83,2272.05 1369.64,2303.51C1372.77,2308.01 1378.74,2309.47 1383.48,2306.73L1383.54,2306.71C1388.75,2303.7 1390.41,2296.85 1386.99,2291.9C1361.44,2254.88 1318.74,2230.55 1270.45,2230.55C1265.08,2230.55 1259.65,2230.85 1254.16,2231.47Z" style="fill:white;fill-rule:nonzero;"/>
    </g>
    <path d="M58.08,21.243C56.979,21.243 56.005,21.027 55.158,20.595C54.312,20.163 53.592,19.587 52.999,18.868C52.406,18.148 51.958,17.327 51.653,16.404C51.348,15.481 51.196,14.52 51.196,13.52C51.196,12.267 51.471,11.014 52.021,9.761C52.572,8.508 53.334,7.377 54.307,6.37C55.281,5.362 56.433,4.541 57.762,3.906C59.092,3.271 60.544,2.953 62.119,2.953C63.778,2.953 65.15,3.313 66.234,4.033C67.318,4.752 68.029,5.705 68.368,6.89L64.024,9.583C63.956,9.143 63.825,8.779 63.63,8.491C63.435,8.203 63.198,7.974 62.919,7.805C62.639,7.636 62.339,7.517 62.017,7.449C61.695,7.382 61.382,7.348 61.077,7.348C60.298,7.348 59.608,7.534 59.007,7.907C58.406,8.279 57.902,8.753 57.495,9.329C57.089,9.905 56.78,10.536 56.568,11.222C56.357,11.907 56.251,12.564 56.251,13.19C56.251,13.681 56.31,14.151 56.428,14.6C56.547,15.049 56.725,15.438 56.962,15.769C57.199,16.099 57.495,16.361 57.851,16.556C58.207,16.751 58.63,16.848 59.121,16.848C59.426,16.848 59.752,16.81 60.099,16.734C60.446,16.658 60.785,16.531 61.115,16.353C61.445,16.175 61.759,15.946 62.055,15.667C62.351,15.388 62.61,15.045 62.83,14.638L66.361,17.051C65.971,17.712 65.459,18.305 64.824,18.83C64.189,19.355 63.495,19.795 62.741,20.15C61.987,20.506 61.204,20.777 60.391,20.963C59.578,21.15 58.808,21.243 58.08,21.243ZM43.168,3.055L47.715,3.055L49.722,21.09L44.693,21.09L44.515,17.559L40.196,17.559L38.545,21.09L33.49,21.09L43.168,3.055ZM91.941,3.055L103.982,3.055L103.067,7.373L95.98,7.373L95.447,9.913L101.492,9.913L100.629,13.927L94.583,13.927L93.973,16.772L101.289,16.772L100.375,21.09L88.105,21.09L91.941,3.055ZM71.111,3.055L76.522,3.055L78.173,11.539L83.457,3.055L88.842,3.055L85.006,21.09L80.053,21.09L82.06,11.59L78.046,18.271L75.429,18.271L74.261,11.59L72.229,21.09L67.275,21.09L71.111,3.055ZM44.439,14.257L44.235,8.669L41.619,14.257L44.439,14.257Z" style="fill:white;fill-rule:nonzero;"/>
</svg>
